<?xml version="1.0" encoding="UTF-8" standalone="no"?>
<!-- Created with Inkscape (http://www.inkscape.org/) -->

<svg
   xmlns:dc="http://purl.org/dc/elements/1.1/"
   xmlns:cc="http://creativecommons.org/ns#"
   xmlns:rdf="http://www.w3.org/1999/02/22-rdf-syntax-ns#"
   xmlns:svg="http://www.w3.org/2000/svg"
   xmlns="http://www.w3.org/2000/svg"
   xmlns:xlink="http://www.w3.org/1999/xlink"
   xmlns:sodipodi="http://sodipodi.sourceforge.net/DTD/sodipodi-0.dtd"
   xmlns:inkscape="http://www.inkscape.org/namespaces/inkscape"
   id="svg3406"
   version="1.1"
   inkscape:version="0.91 r13725"
   width="630"
   height="537"
   viewBox="0 0 630 537"
   sodipodi:docname="dry-oar.svg">
  <metadata
     id="metadata3412">
    <rdf:RDF>
      <cc:Work
         rdf:about="">
        <dc:format>image/svg+xml</dc:format>
        <dc:type
           rdf:resource="http://purl.org/dc/dcmitype/StillImage" />
        <dc:title></dc:title>
      </cc:Work>
    </rdf:RDF>
  </metadata>
  <defs
     id="defs3410">
    <linearGradient
       inkscape:collect="always"
       id="linearGradient4336">
      <stop
         style="stop-color:#aa0000;stop-opacity:1;"
         offset="0"
         id="stop4338" />
      <stop
         style="stop-color:#890000;stop-opacity:1"
         offset="1"
         id="stop4340" />
    </linearGradient>
    <linearGradient
       id="linearGradient4268"
       inkscape:collect="always">
      <stop
         id="stop4270"
         offset="0"
         style="stop-color:#aa0000;stop-opacity:1;" />
      <stop
         id="stop4272"
         offset="1"
         style="stop-color:#890000;stop-opacity:0.57611942" />
    </linearGradient>
    <linearGradient
       inkscape:collect="always"
       id="linearGradient4258">
      <stop
         style="stop-color:#aa0000;stop-opacity:1;"
         offset="0"
         id="stop4260" />
      <stop
         style="stop-color:#8b0000;stop-opacity:0.59607846"
         offset="1"
         id="stop4262" />
    </linearGradient>
    <inkscape:path-effect
       effect="powerstroke"
       id="path-effect3422"
       is_visible="true"
       offset_points="8.0175945e-08,0.38079501"
       sort_points="true"
       interpolator_type="CubicBezierJohan"
       interpolator_beta="0.2"
       start_linecap_type="zerowidth"
       linejoin_type="round"
       miter_limit="4"
       end_linecap_type="zerowidth"
       cusp_linecap_type="round" />
    <inkscape:path-effect
       effect="powerstroke"
       id="path-effect3418"
       is_visible="true"
       offset_points="0,0.5"
       sort_points="true"
       interpolator_type="CubicBezierJohan"
       interpolator_beta="0.2"
       start_linecap_type="zerowidth"
       linejoin_type="round"
       miter_limit="4"
       end_linecap_type="zerowidth"
       cusp_linecap_type="round" />
    <inkscape:path-effect
       effect="powerstroke"
       id="path-effect3422-3"
       is_visible="true"
       offset_points="8.0175945e-08,0.38079501"
       sort_points="true"
       interpolator_type="Linear"
       interpolator_beta="0.2"
       start_linecap_type="zerowidth"
       linejoin_type="round"
       miter_limit="4"
       end_linecap_type="zerowidth"
       cusp_linecap_type="round" />
    <inkscape:path-effect
       effect="powerstroke"
       id="path-effect3422-7"
       is_visible="true"
       offset_points="8.0175945e-08,0.38079501"
       sort_points="true"
       interpolator_type="Linear"
       interpolator_beta="0.2"
       start_linecap_type="zerowidth"
       linejoin_type="round"
       miter_limit="4"
       end_linecap_type="zerowidth"
       cusp_linecap_type="round" />
    <linearGradient
       inkscape:collect="always"
       xlink:href="#linearGradient4268"
       id="linearGradient4264"
       x1="88.978722"
       y1="-173.09535"
       x2="368.38091"
       y2="-173.09535"
       gradientUnits="userSpaceOnUse"
       gradientTransform="translate(109.35866,305.22493)" />
    <linearGradient
       inkscape:collect="always"
       xlink:href="#linearGradient4258"
       id="linearGradient4266"
       x1="81.214287"
       y1="563.40757"
       x2="375.23022"
       y2="563.40757"
       gradientUnits="userSpaceOnUse"
       gradientTransform="translate(128.94529,-151.79635)" />
    <inkscape:path-effect
       effect="powerstroke"
       id="path-effect3422-7-5"
       is_visible="true"
       offset_points="8.0175945e-08,0.38079501"
       sort_points="true"
       interpolator_type="Linear"
       interpolator_beta="0.2"
       start_linecap_type="zerowidth"
       linejoin_type="round"
       miter_limit="4"
       end_linecap_type="zerowidth"
       cusp_linecap_type="round" />
    <linearGradient
       inkscape:collect="always"
       xlink:href="#linearGradient4336"
       id="linearGradient4306"
       x1="39.710728"
       y1="226.16232"
       x2="397.76483"
       y2="307.77328"
       gradientUnits="userSpaceOnUse" />
    <linearGradient
       inkscape:collect="always"
       xlink:href="#linearGradient4336"
       id="linearGradient4334"
       x1="37.186234"
       y1="264.10922"
       x2="401.94022"
       y2="264.10922"
       gradientUnits="userSpaceOnUse" />
    <linearGradient
       inkscape:collect="always"
       xlink:href="#linearGradient4336"
       id="linearGradient4356"
       x1="35.601913"
       y1="258.11154"
       x2="403.50592"
       y2="258.11154"
       gradientUnits="userSpaceOnUse" />
    <linearGradient
       inkscape:collect="always"
       xlink:href="#linearGradient4336"
       id="linearGradient4364"
       x1="67.319778"
       y1="264.11166"
       x2="371.78796"
       y2="264.11166"
       gradientUnits="userSpaceOnUse"
       gradientTransform="translate(-8.0790711,5.7707651)" />
  </defs>
  <sodipodi:namedview
     pagecolor="#ffffff"
     bordercolor="#666666"
     borderopacity="1"
     objecttolerance="10"
     gridtolerance="10"
     guidetolerance="10"
     inkscape:pageopacity="0"
     inkscape:pageshadow="2"
     inkscape:window-width="640"
     inkscape:window-height="480"
     id="namedview3408"
     showgrid="false"
     inkscape:snap-bbox="true"
     inkscape:zoom="0.86643624"
     inkscape:cx="272.06172"
     inkscape:cy="259.17201"
     inkscape:current-layer="svg3406" />
  <path
     style="fill:url(#linearGradient4356);fill-rule:evenodd;stroke:none;stroke-width:1px;stroke-linecap:butt;stroke-linejoin:miter;stroke-opacity:1;fill-opacity:1.0"
     d="m 325.83601,272.40502 0,0 c 3.4e-4,-3e-5 14.59853,-1.27875 30.37765,-2.79371 7.88942,-0.75747 16.07526,-1.5741 22.87974,-2.31957 6.80451,-0.74546 12.22392,-1.41797 14.61644,-1.89662 2.50357,-0.50088 4.86016,-2.50899 6.62341,-5.34222 1.76932,-2.84297 2.97423,-6.56502 3.15035,-10.59151 0.35316,-8.07373 -3.43234,-17.36474 -15.05363,-23.26699 a 0.38073138,0.38099292 56.472135 0 0 -0.19913,-0.0403 c -27.51024,1.93079 -30.53049,2.85867 -68.93749,7.11291 a 0.37984003,0.38209435 34.242103 0 0 -0.0601,0.0116 l -62.20531,17.28583 -25.83001,6.10747 -19.8491,3.19573 c -0.91267,0.10869 -82.2778,9.79163 -123.415531,12.33507 -6.729823,0.41609 -20.330825,0.48977 -20.327826,0.48975 a 0.38079502,0.38079502 0 0 0 0.0206,4.5e-4 l -10.68117,-0.5211 -15.364406,-2.8121 a 0.38030672,0.38153127 49.505966 0 0 -0.07882,-0.006 c -2.627799,0.0707 -4.322716,1.67403 -5.186675,3.90145 -0.856461,2.20808 -0.915206,5.05378 -0.316958,7.75394 0.598415,2.70088 1.866588,5.31226 3.725201,7.03444 1.874602,1.73699 4.348004,2.56108 7.267204,1.65354 a 0.38342561,0.37863723 24.090625 0 0 0.04086,-0.0153 l 12.603285,-5.56756 9.696342,-2.18881 19.804725,-2.57331 -0.01353,0.002 1.11e-4,-2e-5 123.412965,-11.56016 20.12169,-0.74854 28.96297,0.8551 64.1562,4.5057 z m -0.007,-0.7592 -64.16391,-4.50624 a 0.38079501,0.38079501 0 0 0 -0.0154,-7.7e-4 l -28.9834,-0.8557 a 0.37687991,0.38503623 45.392284 0 0 -0.0254,10e-5 l -20.14505,0.74941 a 0.38664022,0.37516358 40.397378 0 0 -0.0214,0.001 l -123.423633,11.56116 -1.11e-4,1e-5 a 0.36605114,0.39397628 40.725623 0 0 -0.01357,0.002 l -19.82226,2.57559 a 0.38079501,0.38079501 0 0 0 -0.03478,0.006 l -9.749718,2.20086 a 0.38108073,0.38060101 26.687511 0 0 -0.07003,0.0231 l -12.616977,5.57361 c -2.623072,0.80813 -4.80947,0.0778 -6.502878,-1.4913 -1.713843,-1.58803 -2.923744,-4.04295 -3.499268,-6.64052 -0.575677,-2.59829 -0.504207,-5.28314 0.283442,-7.31381 0.775634,-1.9997 2.226321,-3.33936 4.458034,-3.41436 l 15.349513,2.80937 a 0.38079501,0.38079501 0 0 0 0.05,0.006 L 67.589,273.45354 a 0.38079502,0.38079502 0 0 0 0.0206,4.5e-4 c 0.003,-2e-5 13.594403,-0.0722 20.370738,-0.49119 41.416803,-2.56069 123.463623,-12.33956 123.466403,-12.33989 a 0.3754445,0.3862072 37.837627 0 0 0.0155,-0.002 l 19.87045,-3.19917 a 0.38079502,0.38079502 0 0 0 0.0271,-0.005 l 25.85066,-6.11236 a 0.36006486,0.3982128 33.461403 0 0 0.0144,-0.004 l 62.1829,-17.2796 c 38.34299,-4.24715 41.38047,-5.17515 68.77111,-7.09937 11.2787,5.7676 14.88336,14.74753 14.54395,22.5069 -0.17063,3.9008 -1.33861,7.49487 -3.03607,10.2224 -1.70352,2.73724 -3.90755,4.55397 -6.12622,4.99784 -2.32975,0.46609 -7.75051,1.14145 -14.54999,1.88636 -6.79951,0.74492 -14.98149,1.56118 -22.86959,2.31852 -15.77592,1.51465 -30.37165,2.79317 -30.37132,2.79314 z"
     id="path3420"
     inkscape:path-effect="#path-effect3422"
     inkscape:original-d="m 325.80278,272.02568 c 0,0 58.38784,-5.11448 67.83236,-7.00396 9.44449,-1.88948 17.59613,-26.81985 -5.3776,-38.4878 -27.4993,1.93002 -30.50744,2.85642 -68.92227,7.11153 l -62.21247,17.28781 -25.85066,6.11236 -19.87046,3.19917 c 0,0 -82.05105,9.77867 -123.444842,12.33794 -6.753079,0.41753 -20.349282,0.49047 -20.349282,0.49047 l -10.706361,-0.52233 -15.389216,-2.81664 c -9.763376,0.26247 -5.737412,23.05086 5.365494,19.59907 l 12.637172,-5.58253 9.749727,-2.20086 19.822278,-2.57559 123.42374,-11.56117 20.14508,-0.74941 28.9834,0.8557 z"
     inkscape:connector-curvature="0"
     sodipodi:nodetypes="czcccccsccccccccccc" />
  <path
     style="fill:url(#linearGradient4334);fill-rule:nonzero;stroke:url(#linearGradient4306);stroke-width:1px;stroke-linecap:butt;stroke-linejoin:miter;stroke-opacity:1;fill-opacity:1"
     d="m 124.00428,226.71657 c 0,0 0,0 0,0 l 0.0865,-0.75163 c -3.3e-4,-8e-5 -14.33013,-3.34437 -29.87985,-6.8381 -7.774731,-1.74683 -15.85557,-3.53128 -22.603214,-4.95382 -6.747304,-1.42248 -12.158823,-2.48376 -14.628094,-2.78617 -2.569721,-0.31472 -5.686038,0.77997 -8.628301,2.81011 -2.953173,2.03768 -5.782698,5.05126 -7.786642,8.66458 -4.018165,7.24519 -4.716341,16.91881 3.557502,25.92493 a 0.38074377,0.38097072 75.788726 0 0 0.187547,0.11168 c 26.785463,6.73913 30.053148,6.82603 68.161092,14.81302 a 0.37972347,0.38223277 52.592632 0 0 0.0584,0.008 l 66.47348,3.45487 27.11428,2.41081 20.15133,3.2185 c 0.89452,0.17995 81.94388,16.4911 121.84415,26.883 6.52709,1.69995 19.36644,5.83501 19.36378,5.83415 a 0.380795,0.380795 0 0 0 -0.0199,-0.007 l 9.81725,3.77493 13.17926,7.31095 a 0.38035243,0.38147485 67.894435 0 0 0.0759,0.0319 c 2.4981,0.74498 4.79445,-0.18771 6.60443,-1.93132 1.80397,-1.73782 3.15953,-4.30759 3.83159,-6.95912 0.67106,-2.64759 0.67492,-5.43573 -0.29724,-7.60168 -0.98631,-2.19745 -2.96376,-3.71255 -6.11359,-3.78649 a 0.38397335,0.37812101 42.887223 0 0 -0.0401,0.001 l -14.41649,1.18405 -10.13493,-1.00014 -19.82472,-3.77247 0.0131,0.003 -1.1e-4,-2e-5 -121.48706,-27.58883 -19.28795,-5.53445 -26.8792,-9.72862 -58.3477,-23.93222 z m -0.14451,-0.0285 58.3551,23.93525 a 0.38079501,0.38079501 0 0 0 0.0149,0.006 l 26.89886,9.73574 a 0.37703168,0.38488913 63.543169 0 0 0.0246,0.008 l 19.31062,5.54095 a 0.38663828,0.37516458 58.540808 0 0 0.0207,0.005 l 121.49748,27.5912 1.1e-4,2e-5 a 0.36537096,0.39446277 58.97552 0 0 0.0132,0.003 l 19.84151,3.77566 a 0.38079501,0.38079501 0 0 0 0.0338,0.005 l 10.18618,1.00519 a 0.38112956,0.38056133 45.428234 0 0 0.0686,5.7e-4 l 14.43058,-1.1852 c 2.85423,0.073 4.55459,1.41553 5.41679,3.33648 0.87835,1.95693 0.89952,4.55513 0.25382,7.10268 -0.6447,2.54359 -1.93997,4.97768 -3.62173,6.59778 -1.66564,1.60457 -3.67564,2.38419 -5.81933,1.76147 l -13.1657,-7.30343 a 0.38079501,0.38079501 0 0 0 -0.0481,-0.0224 l -9.84206,-3.78446 a 0.38079502,0.38079502 0 0 0 -0.0199,-0.007 c -0.003,-8.6e-4 -12.83365,-4.13468 -19.40533,-5.84625 C 308.13666,288.48736 226.41394,272.05538 226.411,272.05479 a 0.37508327,0.38653552 56.082682 0 0 -0.015,-0.003 l -20.17197,-3.2218 a 0.380795,0.380795 0 0 0 -0.0263,-0.003 l -27.13448,-2.41261 a 0.3565049,0.40034674 52.341082 0 0 -0.014,-9.8e-4 l -66.451,-3.4537 c -38.041613,-7.97309 -41.329329,-8.0661 -67.991828,-14.77228 -7.942644,-8.70961 -7.245719,-17.97834 -3.375643,-24.95651 1.946398,-3.50956 4.695584,-6.4354 7.553125,-8.4071 2.868432,-1.9792 5.794745,-2.96376 8.103227,-2.68104 2.408954,0.29503 7.82041,1.35384 14.563569,2.77544 6.742818,1.42152 14.819928,3.20513 22.593368,4.95168 15.546622,3.49303 29.874042,6.83677 29.873722,6.83669 z"
     id="path3420-6"
     inkscape:path-effect="#path-effect3422-3"
     inkscape:original-d="m 124.00428,226.33577 c 0,0 -57.31446,-13.37607 -67.070908,-14.57095 -9.756443,-1.19489 -28.828361,19.02397 -12.530729,36.76403 26.77489,6.73648 30.03076,6.82103 68.146327,14.80962 l 66.4805,3.45523 27.13448,2.41261 20.17198,3.2218 c 0,0 81.72729,16.43362 121.87253,26.88932 6.54938,1.70576 19.38455,5.8402 19.38455,5.8402 l 9.84206,3.78446 13.2025,7.32385 c 9.31292,2.77731 15.93955,-19.25059 3.90742,-19.533 l -14.4508,1.18686 -10.18619,-1.00519 -19.84152,-3.77567 -121.49759,-27.59122 -19.31065,-5.54096 -26.89886,-9.73574 z"
     inkscape:connector-curvature="0"
     sodipodi:nodetypes="czcccccsccccccccccc"
     inkscape:transform-center-x="10.087629"
     inkscape:transform-center-y="-54.350622" />
  <path
     style="fill:url(#linearGradient4364);fill-opacity:1;fill-rule:evenodd;stroke:none;stroke-width:1px;stroke-linecap:butt;stroke-linejoin:miter;stroke-opacity:1"
     d="m 282.97407,337.6982 0,0 c 3.2e-4,2.1e-4 11.7483,7.57295 24.53917,15.65293 6.39532,4.03991 13.05244,8.20732 18.63271,11.61867 5.58005,3.41122 10.07975,6.06606 12.19561,7.0951 2.2204,1.07987 5.37019,0.86787 8.64091,-0.33804 3.28675,-1.21182 6.76616,-3.45048 9.69454,-6.53434 5.86608,-6.17755 9.53822,-15.77176 4.99714,-27.31643 a 0.38095186,0.38075177 6.2247582 0 0 -0.14203,-0.17671 c -21.80645,-14.65162 -24.70051,-15.69283 -56.22743,-34.90914 a 0.38001284,0.38188991 71.531277 0 0 -0.0591,-0.0293 l -58.30459,-22.87435 -23.4629,-10.34678 -16.98614,-9.13893 c -0.80508,-0.48085 -68.02504,-40.63802 -100.37659,-62.80836 -5.29221,-3.62672 -15.459287,-11.56924 -15.456762,-11.56727 a 0.38079501,0.38079501 0 0 0 0.01766,0.0147 l -7.577499,-6.69381 -9.465038,-11.26633 a 0.38043621,0.38136535 88.367044 0 0 -0.06437,-0.0607 c -2.025225,-1.50583 -4.398365,-1.21398 -6.566364,0.0304 -2.160593,1.24014 -4.17884,3.45289 -5.611922,5.9425 -1.43189,2.48755 -2.309318,5.30374 -2.126305,7.76925 0.185276,2.49599 1.465114,4.62841 4.287248,5.63213 a 0.38316631,0.37887502 60.837587 0 0 0.04367,0.0126 l 13.249457,2.99502 8.731368,3.9647 16.513522,9.60319 99.83086,63.41921 15.48347,11.24047 20.94224,17.71396 44.57495,41.31483 z m 0.46517,-0.59934 -44.58129,-41.32071 a 0.380795,0.380795 0 0 0 -0.0129,-0.0115 l -20.95962,-17.72866 a 0.37782521,0.38410094 83.572871 0 0 -0.0222,-0.0174 l -15.50444,-11.25568 a 0.38542741,0.37645515 78.528979 0 0 -0.0195,-0.0133 l -99.84703,-63.42949 a 0.41734534,0.30982748 67.898954 0 0 -0.0129,-0.008 l -16.536517,-9.61656 a 0.38079501,0.38079501 0 0 0 -0.03399,-0.0175 l -8.784272,-3.98872 a 0.38104668,0.38062764 63.548707 0 0 -0.07349,-0.0247 l -13.264995,-2.99854 c -2.493953,-0.89513 -3.596556,-2.73721 -3.761803,-4.96339 -0.167978,-2.26295 0.640834,-4.92507 2.026838,-7.3329 1.384808,-2.40575 3.316063,-4.50541 5.331014,-5.66196 1.993699,-1.14434 4.008013,-1.33877 5.697658,-0.10566 l 9.454088,11.25329 a 0.38079501,0.38079501 0 0 0 0.03945,0.0404 l 7.59873,6.71257 a 0.38079501,0.38079501 0 0 0 0.01766,0.0147 c 0.0025,0.002 10.160742,7.93973 15.495132,11.59535 32.58955,22.33345 100.42121,62.83675 100.42395,62.83838 a 0.37651838,0.38521254 75.215235 0 0 0.0148,0.008 l 17.00677,9.15003 a 0.38079501,0.38079501 0 0 0 0.0268,0.0131 l 23.48377,10.35599 a 0.36342854,0.39602051 70.064279 0 0 0.0146,0.006 l 58.2811,22.86513 c 31.46562,19.17894 34.37568,20.23247 56.07197,34.80735 4.35051,11.17979 0.79174,20.42604 -4.8838,26.40294 -2.85178,3.00319 -6.23366,5.17467 -9.40573,6.34421 -3.18808,1.17544 -6.09457,1.31599 -8.04436,0.36773 -2.05432,-0.99911 -6.55568,-3.65138 -12.13149,-7.06001 -5.57559,-3.40849 -12.22912,-7.57363 -18.6232,-11.61276 -12.78789,-8.0781 -24.5336,-15.64937 -24.53329,-15.64917 z"
     id="path3420-5"
     inkscape:path-effect="#path-effect3422-7"
     inkscape:original-d="m 283.18038,337.37814 c 0,0 46.98738,30.28802 55.32773,34.34432 8.34036,4.05628 31.76979,-10.93303 22.81167,-33.70698 C 339.52335,323.37059 336.6408,322.3362 305.1065,303.1154 l -58.31196,-22.87724 -23.48377,-10.35599 -17.00678,-9.15003 c 0,0 -67.83545,-40.50655 -100.40392,-62.82555 -5.3133,-3.64117 -15.475947,-11.58131 -15.475947,-11.58131 l -7.59873,-6.71257 -9.48326,-11.28802 c -7.44411,-5.53505 -20.32461,14.91792 -9.66252,18.70993 l 13.28746,3.00361 8.78428,3.98872 16.536537,9.61657 99.84712,63.42955 15.50446,11.2557 20.95962,17.72866 z"
     inkscape:connector-curvature="0"
     sodipodi:nodetypes="czcccccsccccccccccc" />
  <text
     xml:space="preserve"
     style="font-style:normal;font-variant:normal;font-weight:500;font-stretch:normal;font-size:180px;line-height:125%;font-family:Bobo;-inkscape-font-specification:'Bobo, Medium';text-align:start;writing-mode:lr-tb;text-anchor:start;opacity:1;fill:url(#linearGradient4264);fill-opacity:1;fill-rule:evenodd;stroke:none;stroke-width:1.02100003;stroke-linecap:round;stroke-linejoin:round;stroke-miterlimit:4;stroke-dasharray:none;stroke-dashoffset:0;stroke-opacity:1"
     x="189.33739"
     y="205.65958"
     id="text3450"
     sodipodi:linespacing="125%"><tspan
       sodipodi:role="line"
       id="tspan3452"
       x="189.33739"
       y="205.65958"
       style="font-style:normal;font-variant:normal;font-weight:500;font-stretch:normal;font-size:180px;line-height:125%;font-family:Bobo;-inkscape-font-specification:'Bobo, Medium';text-align:start;writing-mode:lr-tb;text-anchor:start;fill:url(#linearGradient4264);fill-opacity:1;fill-rule:evenodd;stroke:none">Dry</tspan></text>
  <text
     xml:space="preserve"
     style="font-style:normal;font-variant:normal;font-weight:500;font-stretch:normal;font-size:180px;line-height:125%;font-family:Bobo;-inkscape-font-specification:'Bobo, Medium';text-align:start;writing-mode:lr-tb;text-anchor:start;opacity:1;fill:url(#linearGradient4266);fill-opacity:1;fill-rule:evenodd;stroke:none;stroke-width:1.02100003;stroke-linecap:round;stroke-linejoin:round;stroke-miterlimit:4;stroke-dasharray:none;stroke-dashoffset:0;stroke-opacity:1"
     x="205.65956"
     y="486.40121"
     id="text3454"
     sodipodi:linespacing="125%"><tspan
       sodipodi:role="line"
       id="tspan3456"
       x="205.65956"
       y="486.40121"
       style="fill:url(#linearGradient4266);fill-opacity:1;fill-rule:evenodd">Oar</tspan></text>
  <path
     style="fill:#000000;fill-rule:evenodd;stroke:none;stroke-width:1px;stroke-linecap:butt;stroke-linejoin:miter;stroke-opacity:1"
     d="m 118.98952,292.95183 0,0 c -3.5e-4,1.6e-4 -12.67577,5.89042 -26.336891,12.39167 -6.83043,3.25056 -13.908452,6.65442 -19.772244,9.55142 -5.86356,2.89689 -10.510772,5.28413 -12.510551,6.52376 -2.098561,1.30089 -3.60101,4.07736 -4.327631,7.48674 -0.73018,3.42609 -0.694981,7.56333 0.349066,11.68589 2.091428,8.25826 8.243144,16.48565 20.429176,18.80977 a 0.38075177,0.38095186 38.494695 0 0 0.225241,-0.0257 c 24.031224,-10.61565 26.456774,-12.50678 59.537464,-28.90437 a 0.38001284,0.38188991 13.801209 0 0 0.0564,-0.0343 l 50.47055,-37.08617 21.27569,-14.31462 16.7964,-9.48314 c 0.83642,-0.424 70.68031,-35.82105 106.69906,-51.33869 5.89208,-2.53845 18.03611,-6.89457 18.0331,-6.89349 a 0.00639305,0.09411697 76.249384 0 0 -0.12855,0.0224 l 9.7328,-2.84114 a 0.00212664,0.0411283 83.157897 0 0 0.0514,-0.004 l 14.60769,-1.99172 a 0.38043621,0.38136535 30.636983 0 0 0.0856,-0.022 c 2.35454,-0.90843 3.3748,-3.07085 3.48013,-5.56838 0.10497,-2.48899 -0.68844,-5.37691 -2.02838,-7.91787 -1.33883,-2.53885 -3.25157,-4.78434 -5.43397,-5.94595 -2.20939,-1.17598 -4.69576,-1.23234 -7.0512,0.618 a 0.38316633,0.37887499 3.1075098 0 0 -0.034,0.0302 l -9.60641,9.60391 -8.01408,5.26595 -16.93662,8.83566 -106.92417,50.5511 -17.77106,7.09055 -26.15914,8.24991 -58.7324,15.63165 z m 0.25841,0.71331 58.74075,-15.63387 a 0.38079498,0.38079498 0 0 0 0.0166,-0.005 l 26.18085,-8.25675 a 0.37782522,0.38410092 25.842806 0 0 0.0266,-0.009 l 17.79511,-7.10015 a 0.3854274,0.37645511 20.798912 0 0 0.0217,-0.009 l 106.9415,-50.55929 a 0.41734528,0.30982795 10.168936 0 0 0.0135,-0.007 l 16.96021,-8.84797 a 0.38079502,0.38079502 0 0 0 0.033,-0.0194 l 8.06263,-5.29786 a 0.38104668,0.38062764 5.8186464 0 0 0.0601,-0.049 l 9.61768,-9.61517 c 2.08842,-1.63082 4.23466,-1.57962 6.20521,-0.53076 2.00311,1.06617 3.82221,3.17139 5.11813,5.62888 1.29481,2.45536 2.03904,5.20935 1.94115,7.53056 -0.0969,2.29674 -1.00793,4.10373 -2.95269,4.87403 l -14.56275,1.9856 0.0514,-0.004 -9.7328,2.84114 a 0.00639305,0.09411698 76.249384 0 0 -0.12855,0.0224 c -0.003,0.001 -12.13828,4.35224 -18.07734,6.91093 -36.28371,15.6318 -106.74687,51.36127 -106.74972,51.36271 a 0.37651838,0.38521258 17.485174 0 0 -0.015,0.008 l -16.81681,9.49467 a 0.38079501,0.38079501 0 0 0 -0.0254,0.0156 l -21.29461,14.32735 a 0.3634288,0.39602037 12.334193 0 0 -0.0129,0.009 l -50.45022,37.07123 c -33.01637,16.36571 -35.46088,18.26379 -59.368393,28.82726 -11.775761,-2.29045 -17.693793,-10.23619 -19.71729,-18.22622 -1.016738,-4.01473 -1.0472,-8.03362 -0.342497,-11.34017 0.708261,-3.32323 2.141217,-5.85584 3.984025,-6.99819 1.941611,-1.20358 6.587529,-3.59359 12.446639,-6.48828 5.858878,-2.89457 12.933066,-6.2966 19.762172,-9.54653 13.657944,-6.49974 26.330904,-12.38886 26.330564,-12.3887 z"
     id="path3420-5-3"
     inkscape:path-effect="#path-effect3422-7-5"
     inkscape:original-d="m 119.14999,293.29716 c 0,0 -50.696765,23.55876 -58.579526,28.44518 -7.882749,4.88645 -7.717835,32.69994 16.32132,37.28469 24.020176,-10.61077 26.433816,-12.49581 59.522246,-28.89724 l 50.47694,-37.09086 21.29461,-14.32735 16.81681,-9.49467 c 0,0 70.46793,-35.73093 106.72818,-51.35262 5.91557,-2.54857 18.05522,-6.90221 18.05522,-6.90221 l 9.7328,-2.84114 14.60769,-1.99172 c 8.6546,-3.3391 -1.76224,-25.15013 -10.66112,-18.15947 l -9.63397,9.63145 -8.06264,5.29787 -16.96022,8.84797 -106.9416,50.55934 -17.79514,7.10016 -26.18085,8.25675 z"
     inkscape:connector-curvature="0"
     sodipodi:nodetypes="czcccccsccccccccccc" />
</svg>
