<?xml version="1.0" encoding="UTF-8"?>
<svg id="svg3406" version="1.1" viewBox="0 0 547.68 301.45" xmlns="http://www.w3.org/2000/svg" xmlns:cc="http://creativecommons.org/ns#" xmlns:dc="http://purl.org/dc/elements/1.1/" xmlns:rdf="http://www.w3.org/1999/02/22-rdf-syntax-ns#"><metadata id="metadata3412"><rdf:RDF><cc:Work rdf:about=""><dc:format>image/svg+xml</dc:format><dc:type rdf:resource="http://purl.org/dc/dcmitype/StillImage"/></cc:Work></rdf:RDF></metadata><path id="text3450" d="m365.6 63q0 32.58-17.82 49.14-17.64 16.38-49.32 16.38h-35.82v-128.52h39.6q19.44 0 33.66 7.2 14.22 7.2 21.96 21.24 7.74 13.86 7.74 34.56zm-17.1 0.54q0-25.74-12.78-37.62-12.6-12.06-35.82-12.06h-21.06v100.8h17.46q52.2 0 52.2-51.12zm88.38-33.3q2.7 0 5.76 0.36 3.24 0.18 5.58 0.72l-1.98 14.58q-2.34-0.54-5.22-0.9-2.7-0.36-5.22-0.36-7.38 0-13.86 4.14-6.48 3.96-10.44 11.34-3.78 7.2-3.78 16.92v51.48h-15.84v-96.48h12.96l1.8 17.64h0.72q4.68-7.92 12.06-13.68t17.46-5.76zm14.22 1.8h16.92l20.88 54.9q2.7 7.2 4.86 13.86 2.16 6.48 3.24 12.42h0.72q1.08-4.5 3.42-11.7 2.34-7.38 4.86-14.76l19.62-54.72h17.1l-41.58 109.8q-5.04 13.68-13.14 21.78-7.92 8.1-21.96 8.1-4.32 0-7.56-0.54-3.24-0.36-5.58-0.9v-12.6q1.98 0.36 4.68 0.72 2.88 0.36 5.94 0.36 8.28 0 13.32-4.68 5.22-4.68 8.1-12.42l5.04-12.78z" style="fill-rule:evenodd;fill:#95e5e5;stroke-linecap:round;stroke-linejoin:round;stroke-width:1.021" aria-label="Dry"/><text id="text3454" x="234.47682" y="299.64676" style="fill-rule:evenodd;fill:#95e5e5;font-family:Bobo;font-weight:500;line-height:0%;stroke-linecap:round;stroke-linejoin:round;stroke-width:1.021" xml:space="preserve"><tspan id="tspan3456" x="234.47682" y="299.64676" style="fill-rule:evenodd;fill:#95e5e5;font-size:180px;line-height:1.25">Oar</tspan></text><path id="path865-3" d="m136.01 270.89c-0.56687-3.6744-4.8708-13.648-3.3028-16.952 0 0 0.47034-102.93 2.9039-117.25-0.14051-11.329 11.857-64.9 11.857-64.9l-0.012-50.674s-6.953-8.17-14.564-7.7579c0 0-11.282 2.1841-13.64 8.0727l-0.60792 49.463c1.5336 15.382 6.2067 37.341 9.8467 66.653 2.0035 42.611-0.8835 100.22-2.5999 116.66-1.2764 12.22-4.6538 15.05-4.2508 17.708 2.1016 8.5935 15.331 4.7978 14.37-1.0252z" style="fill:#95e5e5"/><path id="path865" d="m243.56 149.49c-3.4688 0.64188-12.852 5.3074-15.995 3.6881 0 0-97.355 0.69645-110.93-1.7101-10.713 0.27993-61.522-11.782-61.522-11.782l-47.929 0.60033s-7.6468 7.445-7.1687 15.486c0 0 2.1966 11.901 7.7935 14.326l46.791 0.069c14.531-1.7996 35.246-6.9944 62.927-11.182 40.28-2.6121 94.805-0.22837 110.37 1.3956 11.573 1.2076 14.289 4.7452 16.798 4.2883 8.1036-2.3214 4.3601-16.263-1.1363-15.179z" style="fill:#ffe1a5"/><path id="path865-6" d="m208.28 65.154c-2.0973 2.9906-5.8629 13.205-9.1968 14.319 0 0-70.144 71.378-81.553 79.512-7.5866 8.0022-52.286 36.243-52.286 36.243l-34.365 35.326s-0.69597 10.965 4.888 16.448c0 0 9.3443 7.0309 14.982 4.7149l33.975-34.013c9.3653-11.884 21.003-30.73 38.349-53.919 27.508-31.217 68.6-69.182 80.943-79.333 9.1787-7.5492 13.452-6.9611 14.974-9.119 4.3644-7.5826-7.4308-14.967-10.711-10.18z" style="fill:#ffcea5"/><path id="path865-7" d="m31.396 76.542c3.1099 1.7466 13.225 4.1602 14.764 7.4794 0 0 77.219 62.685 86.529 73.399 8.6157 6.7378 41.694 49.256 41.694 49.256l38.165 30.657s10.36-0.90739 14.656-7.5624c0 0 5.1829-10.817 2.176-16.365l-36.878-30.446c-12.511-8.0186-31.874-17.375-56.149-32.05-33.299-24.102-74.935-61.398-86.27-72.788-8.4294-8.4698-8.5165-13.025-10.762-14.294-7.7428-3.4319-12.891 9.9997-7.9245 12.714z" style="fill:#a0b6ea"/></svg>
