<?xml version="1.0" encoding="UTF-8" standalone="no"?>
<!-- Created with Inkscape (http://www.inkscape.org/) -->
<svg width="5.7412972in" height="2.6182778in" viewBox="0 0 145.82895 66.504256"
   version="1.1" id="svg3317"
   inkscape:version="1.2 (1:1.2+202206011327+fc4e4096c5)"
   sodipodi:docname="pianologo.svg"
   xmlns:inkscape="http://www.inkscape.org/namespaces/inkscape"
   xmlns:sodipodi="http://sodipodi.sourceforge.net/DTD/sodipodi-0.dtd"
   xmlns="http://www.w3.org/2000/svg" xmlns:svg="http://www.w3.org/2000/svg">
   <sodipodi:namedview id="namedview3319" pagecolor="#505050"
      bordercolor="#eeeeee" borderopacity="1" inkscape:showpageshadow="0"
      inkscape:pageopacity="0" inkscape:pagecheckerboard="0"
      inkscape:deskcolor="#505050" inkscape:document-units="mm" showgrid="false"
      inkscape:zoom="0.61557941" inkscape:cx="281.03604" inkscape:cy="249.35857"
      inkscape:window-width="1600" inkscape:window-height="876"
      inkscape:window-x="0" inkscape:window-y="0" inkscape:window-maximized="1"
      inkscape:current-layer="layer1">
      <defs id="defs3314">
         <g inkscape:label="Layer 1" inkscape:groupmode="layer" id="layer1"
            transform="translate(-30.66803,-83.048828)">
            <rect
               style="fill:#105f53;fill-opacity:1;stroke:#ffffff;stroke-width:0.264999"
               id="rect4229" width="145.56395" height="66.239258" x="30.800529"
               y="83.181328">
               <path
                  style="fill:#ffffff;fill-opacity:1;stroke:none;stroke-width:0.264583"
                  d="m 76.6686,90.25111 -2.91041,3.70417 c 2.36987,0.97208 6.14971,1.38933 7.82267,3.46737 3.31867,4.12167 -5.19298,7.22762 -7.82267,7.90971 v 0.26459 c 2.25557,0 8.21928,-0.24104 9.45382,2.17328 0.61807,1.20836 -0.0526,3.40598 -0.14472,4.70588 -0.063,0.89244 0.40322,1.9939 0.0526,2.83792 -0.7448,1.79229 -3.49541,2.43761 -3.95526,4.04628 -1.09881,3.8428 0.53975,7.76763 -1.17316,11.63664 H 77.4623 c -2.88263,-3.71131 -1.33641,-8.84 -2.38125,-13.22917 -1.12024,1.37054 -2.96518,3.59886 -4.53575,4.34869 -2.06428,0.98531 -4.34896,0.75248 -5.93275,2.80644 -2.01004,2.60667 -1.00965,8.24997 -1.18454,11.3657 -0.0519,0.92234 -0.9308,4.50374 -2.48655,3.42715 -0.98134,-0.67918 -0.94774,-2.91015 -0.94033,-3.95631 0.0236,-3.34434 0.99324,-7.15698 -0.53049,-10.31875 -0.75407,2.22885 -2.02063,4.50056 -2.31167,6.85535 -0.12012,0.97314 0.82735,2.16112 0.18653,3.04959 -0.939,1.30228 -4.06294,0.58499 -5.2832,0.14922 l 0.26459,-1.05833 H 50.4748 v -0.26458 c 3.68168,-1.29435 3.74042,-4.49554 3.28719,-7.9375 -0.11774,-0.8943 0.0347,-2.05952 -0.57309,-2.79956 -0.91281,-1.11125 -3.05223,-1.30466 -4.3016,-1.96294 -0.002,2.58021 0.54504,11.18579 -3.43958,10.84791 0.43101,-2.67732 -0.19447,-5.50121 -0.26061,-8.20208 -0.0299,-1.21179 0.2749,-2.85327 -0.49557,-3.89599 -1.05833,-1.43219 -4.20105,-2.07063 -5.8584,-2.45401 -0.26644,-1.19539 -1.05781,-2.95275 -0.25718,-4.11851 0.51462,-0.74982 1.64227,-0.61145 2.345,-1.1049 1.37557,-0.9652 1.32451,-3.34036 1.08718,-4.83076 1.64385,-0.49054 4.3307,0.096 5.74701,-0.80116 1.31683,-0.8337 0.63183,-2.77362 2.19551,-3.61262 1.48564,-0.79719 3.07261,-0.041 4.49289,-1.20279 4.02114,-3.28983 6.65083,-8.86037 11.13632,-11.59775 2.19921,-1.34223 8.67886,-0.96043 11.08868,-0.24818 m -9.525,0.79375 c 0,1.11946 -2.01295,1.81796 -2.51354,2.91042 -0.32544,0.71041 0.34661,1.70154 0.57335,2.38125 0.70274,2.10873 1.31525,4.20343 1.85209,6.35 0.18732,0.74983 0.41089,2.0865 1.14644,2.51354 0.85698,0.49742 2.79691,-0.11959 3.70416,-0.30877 2.94323,-0.61304 9.525,-1.83356 9.525,-5.90894 0,-2.92285 -6.72544,-3.14721 -8.46666,-4.7625 -0.98425,-0.91307 -1.152,-2.66594 -2.38125,-3.30729 -0.94007,-0.49053 -2.47386,-0.0455 -3.43959,0.13229 m 4.7625,-0.26458 1.05834,2.38125 2.11666,-2.38125 h -3.175 m -15.87499,12.96458 c 1.37186,0.71993 2.86385,0.77999 3.43958,2.38125 l 6.87916,-0.26458 -2.38125,-10.84792 c -2.94904,1.37901 -5.93381,6.14495 -7.93749,8.73125 m 5.55624,-8.20208 -6.87916,7.67292 c 2.34897,-0.79852 6.35661,-5.22023 6.87916,-7.67292 m 27.28622,3.63855 c 1.95024,-0.51885 1.28878,5.34538 1.28878,6.41562 v 19.31458 c 0,1.18957 0.67258,5.71897 -0.82788,6.09309 -1.97405,0.49239 -1.28878,-5.26203 -1.28878,-6.35767 v -19.31459 c 0,-1.20147 -0.6739,-5.75151 0.82788,-6.15103 m 7.90337,10.11978 -0.26459,3.43959 h -1.05833 c -0.42518,-1.43828 -0.26458,-3.00567 -0.26458,-4.49792 0,-1.44648 -0.65141,-5.0247 0.27199,-6.19046 0.55827,-0.70485 2.11693,-0.42915 2.90274,-0.42333 1.73884,0.013 3.72904,0.14764 4.91252,1.61449 1.82907,2.26642 0.0786,5.50333 -2.531,5.97058 -1.27979,0.22887 -2.67229,0.0871 -3.96875,0.0871 m 10.12269,-7.47395 c 1.20253,-0.38708 0.98955,1.85076 0.98981,2.44687 10e-4,2.36934 -0.59875,6.45583 2.64583,6.97786 3.80577,0.61251 3.43932,-4.38627 3.43959,-6.71328 0,-0.66463 -0.3011,-2.74214 0.79375,-2.74214 1.17686,0 0.79375,2.55799 0.79375,3.27131 0,2.69557 0.32199,6.44498 -2.91042,7.46019 -4.75747,1.4941 -6.35,-2.55799 -6.35,-6.40186 0,-0.87286 -0.4789,-3.95261 0.59769,-4.29895 m 20.83356,1.12395 -0.79375,1.32292 h -0.26458 c -3.35095,-2.35797 -9.13236,0.27993 -6.72756,4.75853 0.93636,1.74466 4.1611,3.36418 5.77426,1.4777 0.69744,-0.81571 0.42413,-2.32886 0.42413,-3.32581 h 1.5875 c 0,1.15993 0.21643,2.56698 -0.0841,3.69252 -0.52202,1.95501 -3.88461,2.08809 -5.47211,1.72376 -4.68762,-1.07606 -6.04467,-7.50332 -1.85103,-10.14068 1.03638,-0.65167 2.2352,-0.83185 3.43853,-0.82974 1.51183,0.002 2.68631,0.5723 3.96875,1.3208 m 11.90625,0 -0.79375,1.32292 h -0.26458 c -5.29802,-4.04178 -10.3423,4.62888 -4.23334,6.80826 1.24645,0.44476 2.45586,-0.0257 3.70417,-0.19368 v -3.70416 h 1.5875 c 0,1.23983 0.40931,3.37423 -0.42413,4.39367 -2.21218,2.7043 -7.4549,0.82655 -8.82306,-1.7489 -3.25199,-6.12166 4.49316,-9.974 9.24719,-6.87811 m 4.49792,-1.32291 v 11.1125 l -1.42823,-0.61331 -0.15927,-7.32419 0.15927,-2.5617 1.42823,-0.6133 m 11.1125,7.9375 v -3.175 -2.11667 c 2.6e-4,-0.70538 0.84269,-4.03781 1.50336,-1.81266 0.62971,2.12063 0.0844,5.15805 0.0841,7.36891 0,0.69506 0.30638,2.74214 -0.82259,2.74214 -0.93372,0 -1.72324,-1.31921 -2.24023,-1.94839 -1.58009,-1.92405 -2.998,-4.18068 -4.87468,-5.82083 v 7.9375 c -2.66753,-0.20797 -1.5875,-5.89492 -1.5875,-7.9375 0,-0.72417 -0.29634,-2.41591 0.42412,-2.88767 0.86069,-0.56303 1.86029,0.74851 2.31034,1.30149 1.72826,2.12302 3.34592,4.33229 5.20304,6.34868 m 14.55208,2.91041 c -2.20213,0.58473 -1.75049,-1.49648 -3.23162,-2.37384 -2.71595,-1.6092 -5.54699,0.21087 -6.55797,2.63843 l -1.58749,-0.26459 c 1.17157,-2.85565 2.4966,-5.66235 3.78592,-8.46666 0.36433,-0.79243 0.89905,-2.38416 2.0185,-2.25796 1.06416,0.11986 1.51474,1.70471 1.86849,2.52254 1.19036,2.75272 2.5527,5.43295 3.70417,8.20208 m -73.025,-9.26041 v 4.7625 c 1.4134,0 3.18876,0.2741 4.46907,-0.44662 1.43061,-0.80539 1.45389,-3.18558 0,-4.00394 -1.1885,-0.66913 -3.14748,-0.31194 -4.46907,-0.31194 m 67.20416,0.26458 -2.11666,5.02708 4.49791,0.26459 -2.38125,-5.29167 m -115.62291,5.29167 9.525,2.64583 c 0.0286,-1.38509 1.32635,-4.54819 0.5207,-5.67187 -1.13453,-1.58248 -6.81011,-2.78712 -8.37406,-1.49993 -0.90911,0.74798 -1.34382,3.379 -1.67164,4.52597 m 18.78541,-3.43959 0.52917,1.5875 h 0.26458 l -0.79375,-1.5875 m 1.5875,1.05834 c 0.13071,2.35796 2.10212,1.85208 3.96875,1.85208 3.38217,0 6.2746,1.36684 9.525,-0.26458 -3.3819,-2.51699 -9.53135,-1.5875 -13.49375,-1.5875 m -9.78958,2.11666 h 8.46667 c -0.56939,-2.78924 -7.79516,-2.4884 -8.46667,0 m -15.875,-0.26458 v 0.26458 l 2.91042,-0.26458 h -2.91042 m 3.43959,-0.26458 v 0.26458 l 1.05833,0.26458 -1.05833,-0.52916 M 82.2248,108.772 c -1.93225,0.83132 -7.02706,0.48207 -8.18435,2.28547 -0.73448,1.14485 -0.0177,4.75668 -0.0177,6.18119 2.02433,-0.46831 6.48732,-0.76359 8.04227,-2.11349 0.96917,-0.84164 0.62045,-5.25515 0.15981,-6.35317 m -37.83541,0.52916 v 0.26459 l 7.9375,1.85208 5.29166,1.32292 c -1.18824,-1.04723 -3.00249,-1.26233 -4.49791,-1.69969 -3.09113,-0.90434 -5.47,-1.87775 -8.73125,-1.7399 m 24.87083,-0.26458 0.52917,2.11667 6.08541,-1.85209 -6.61458,-0.26458 m -1.05833,2.11667 -0.26459,-1.85209 h -6.87916 c -0.7112,0.002 -1.84415,-0.16563 -2.22145,0.61331 -0.39846,0.82312 -0.0402,1.87907 0.91414,1.96955 2.52465,0.23972 5.90762,-0.40931 8.45106,-0.73077 m -25.4,-1.05834 c -0.0553,2.28494 -1.42981,3.5859 -3.70417,3.70417 l 0.42413,2.36141 3.8092,1.65735 10.31875,3.38957 -4.7625,-2.03994 -9.26041,-3.25172 c 0.30241,-1.89786 3.33216,-2.33919 5.02602,-2.37411 1.1139,-0.023 2.38495,0.96044 3.44091,1.31577 3.0472,1.02553 6.16241,2.06481 9.26015,2.91042 0.49794,-1.18004 0.87074,-2.78606 -0.17277,-3.81979 -0.85249,-0.84429 -2.67203,-1.11231 -3.79598,-1.43457 -3.35915,-0.96308 -7.10433,-2.11508 -10.58333,-2.41856 m 2.11666,2.64584 -1.05833,0.26458 -0.26458,-1.5875 1.32291,1.32292 m 13.49375,-0.26459 c -0.21034,1.79097 0.64003,3.64067 -0.36883,5.28029 -1.14776,1.86479 -3.5179,1.20888 -3.59992,3.71555 6.34339,0 12.68175,-1.05463 18.78542,-2.38125 l -0.26459,-7.67292 c -4.47886,0.35348 -10.15947,2.1037 -14.55208,1.05833 M 40.68525,115.122 v 0.26458 c 3.29327,1.11416 6.45424,2.36114 9.78958,3.36576 1.06548,0.32094 2.64345,1.41632 3.43959,0.33841 -4.23493,-0.8763 -8.88577,-4.73922 -13.22917,-3.96875 m 4.7625,-0.26459 v 0.26459 c 3.21336,1.71291 7.16994,3.42952 10.84792,3.43958 V 118.297 l -10.84792,-3.43959 m 30.42708,2.64584 0.52917,4.7625 h 0.26458 c 0,-1.60761 -0.28972,-3.5187 1.33456,-4.46088 0.93742,-0.54398 2.03438,-0.43048 2.89877,-1.09537 l -5.02708,0.79375 m 21.43125,6.87916 -0.26458,3.43959 -1.32292,-0.26459 v -7.40833 c 0,-0.82603 -0.27675,-2.32278 0.27199,-3.01546 0.56013,-0.70723 2.11508,-0.42545 2.90301,-0.42412 1.74546,0.003 3.72295,0.14128 4.91226,1.61528 1.82906,2.26642 0.0786,5.50333 -2.53101,5.97058 -1.27979,0.22887 -2.67229,0.087 -3.96875,0.087 m 11.37709,3.175 c -1.8169,0.13944 -1.58751,-1.18692 -1.58751,-2.64583 v -8.20208 c 2.81412,0.21934 1.58751,8.54498 1.58751,10.84791 m 12.7,0.26459 -3.01466,-2.63843 -4.88765,-0.11245 -3.21019,2.75088 c 0.52573,-2.95831 2.37252,-6.01848 3.64596,-8.73125 0.37703,-0.80328 0.80063,-2.30294 1.89706,-2.30294 1.17131,0 1.60629,1.71609 1.9775,2.56752 1.17898,2.70192 3.07287,5.55466 3.59198,8.46667 m 9.525,-3.175 c 0,-2.02724 -0.037,-4.05845 10e-4,-6.08516 0.0103,-0.55827 0.0368,-1.95977 0.98849,-1.65338 0.88423,0.28443 0.59769,2.02248 0.59769,2.71145 v 7.9375 c -3.47768,-0.11377 -5.43507,-5.64885 -7.9375,-7.67291 v 7.67291 l -1.32292,0.26459 c -0.75697,-2.56117 -0.2659,-5.80152 -0.26458,-8.46667 2.6e-4,-0.68077 -0.25294,-2.47756 0.83264,-2.47756 1.00674,0 1.78885,1.26497 2.34236,1.94839 1.57692,1.9476 3.11441,3.93303 4.7625,5.82084 m 8.46667,-7.85046 c 7.36996,-1.29487 9.84779,9.4959 2.38125,10.90163 -7.16836,1.34964 -9.70492,-9.61522 -2.38125,-10.90163 m 15.875,2.02962 c -1.37213,-0.37438 -2.79215,-1.12421 -4.22858,-0.55721 -0.87391,0.34475 -1.6801,1.26127 -0.92339,2.13016 1.53855,1.76715 8.1825,1.72403 5.48481,5.82374 -1.42028,2.15821 -8.55504,2.23203 -7.21201,-1.04669 0.88953,0.46567 7.29509,2.44608 5.79808,-0.76702 -1.1938,-2.56223 -7.72822,-1.23667 -5.86634,-5.83618 0.94985,-2.34633 7.4795,-2.93873 6.94743,0.2532 m -85.19584,-0.26458 h 1.05833 l -1.5875,1.05833 -0.79375,-2.38125 1.32292,1.32292 m 27.51666,-0.52917 c -0.21272,0.71967 -0.26114,1.36367 -0.26431,2.11667 -0.003,0.69162 -0.15584,1.65656 0.15927,2.29711 1.48114,3.0099 8.6704,-2.07486 4.06215,-3.95287 -1.1848,-0.48287 -2.6969,-0.16087 -3.95711,-0.46091 m 42.06876,0.14129 c -5.51789,1.31471 -3.0988,9.40673 2.38098,7.96581 4.97417,-1.30783 2.62494,-9.15855 -2.38098,-7.96581 M 77.46201,128.6157 c 1.02553,-0.72443 0.79375,-2.02327 0.79375,-3.175 2.7e-4,-2.37517 -0.17039,-4.80087 0.26458,-7.14375 -2.0312,1.11998 -1.29434,8.13382 -1.05833,10.31875 m 38.10001,-10.05417 -2.11667,5.02708 h 4.49792 l -2.38125,-5.02708 m -69.85001,1.85208 0.52917,7.9375 h 0.26458 c 0,-1.90156 0.9226,-6.83657 -0.79375,-7.9375 m 3.175,0 v 0.26459 l 4.23334,1.5875 v -0.26459 l -4.23334,-1.5875 m -1.5875,0.52917 v 8.20208 h 0.26459 l 0.26458,-8.20208 h -0.52917 m 7.40834,1.32292 v 0.52916 l 11.64166,-0.94218 3.96875,-0.9099 -15.61041,1.32292 m 3.96875,1.05833 v 0.26458 c 4.39049,1.9312 2.91041,9.70386 2.91041,13.75834 l 1.05834,-0.26459 c -0.89059,-4.5638 0.0646,-10.57513 2.64583,-14.2875 l -6.61458,0.52917 m -4.23334,0.26458 c 2.7e-4,1.83515 -0.48657,7.46496 1.05834,8.46667 l 0.52916,-8.46667 h -1.5875 m 2.38125,0.52917 0.26459,0.26458 -0.26459,-0.26458 m -0.26458,6.61458 h 0.26458 l 2.11667,-6.35 c -2.62308,0.42413 -2.33812,4.26218 -2.38125,6.35 M 46.24118,128.6157 v 1.5875 c 0.58129,-0.52705 0.41963,-0.96944 0,-1.5875 m 7.14375,4.23333 1.5875,1.85208 c -0.16933,-1.07182 -0.56886,-1.49436 -1.5875,-1.85208 m 2.38125,2.11667 1.05833,-0.52917 -1.05833,0.52917 m -2.11667,0 0.26459,0.26458 -0.26459,-0.26458 m 7.67292,3.175 v 0.26458 h 0.79375 z"
                  id="path402"
                  sodipodi:nodetypes="cccccccccccccsccccccccccsccccccccccccccccccccsssccccccccccccccsscssccccsscccccsccsscsccccccccsccccccccccccsccccccccccccscccscccccccscccccsccccccccscccccccscccccccccccccccccccccccccccccccccccccccccscccccccccccccccccsccccccccccccccccscsccccsccccccsscccccscccccscccsccccccsscccccccccscccccccccccccccccccccccccccccccccccccccccccccccccccccccccccccccc">
         </g>
</svg>